<svg width="9" height="16" viewBox="0 0 9 16" fill="none" xmlns="http://www.w3.org/2000/svg">
<path d="M8.60085 0.418732C8.4744 0.285996 8.3242 0.180688 8.15884 0.108836C7.99349 0.0369846 7.81623 0 7.63722 0C7.4582 0 7.28095 0.0369846 7.11559 0.108836C6.95024 0.180688 6.80004 0.285996 6.67359 0.418732L0.399728 6.99086C0.273016 7.12332 0.172488 7.28067 0.103897 7.45388C0.0353061 7.62709 0 7.81278 0 8.0003C0 8.18783 0.0353061 8.37351 0.103897 8.54673C0.172488 8.71994 0.273016 8.87728 0.399728 9.00975L6.67359 15.5819C6.80013 15.7144 6.95036 15.8196 7.1157 15.8913C7.28104 15.9631 7.45826 16 7.63722 16C7.81618 16 7.99339 15.9631 8.15873 15.8913C8.32407 15.8196 8.4743 15.7144 8.60085 15.5819C8.7274 15.4493 8.82778 15.2919 8.89626 15.1187C8.96475 14.9455 9 14.7599 9 14.5724C9 14.385 8.96475 14.1993 8.89626 14.0261C8.82778 13.8529 8.7274 13.6955 8.60085 13.563L3.29746 7.99314L8.60085 2.43762C9.13392 1.8792 9.12025 0.96283 8.60085 0.418732V0.418732Z" fill="#EFEFEF"/>
</svg>
