<svg width="79" height="66" viewBox="0 0 79 66" fill="none" xmlns="http://www.w3.org/2000/svg">
<path d="M15.6464 15.4396L30.2103 18.3929C31.2928 18.6124 32.3484 17.9128 32.5679 16.8303L35.3451 3.13533C35.7215 1.27895 38.2277 0.937276 39.0873 2.62513L42.8938 10.0989C43.5266 11.3413 45.2045 11.5713 46.1482 10.545L53.8318 2.18908C55.2693 0.625779 57.8308 2.08498 57.2192 4.11878L56.7438 5.69988C56.2042 7.49434 58.2072 8.97899 59.7671 7.94081L70.5591 0.758508C72.4314 -0.487587 74.6173 1.82752 73.2658 3.62528L68.0559 10.5555C66.9132 12.0757 68.3372 14.1824 70.1738 13.6888L76.2754 12.0486C78.5189 11.4455 79.8142 14.5082 77.8189 15.6978L67.9842 21.5615C66.5432 22.4206 66.7366 24.5652 68.308 25.1527L73.9201 27.2509C75.7318 27.9282 75.6225 30.527 73.7602 31.0498L62.6045 34.1814C61.3151 34.5434 60.7388 36.0456 61.4554 37.177L66.0942 44.5019C67.0387 45.9933 65.7288 47.8877 64 47.5307L51.6519 44.9803C50.6143 44.766 49.5896 45.3981 49.3154 46.4215L45.72 59.8426C45.2757 61.5011 43.0858 61.8657 42.1281 60.4406L36.8385 52.5693C36.083 51.445 34.4519 51.3812 33.6108 52.4429L24.2537 64.2546C22.9389 65.9142 20.2842 64.6602 20.731 62.5906L21.5844 58.638C21.9589 56.9035 20.057 55.5766 18.5584 56.5268L9.6319 62.1873C7.74429 63.3843 5.61352 61.0542 6.97405 59.2809L11.4433 53.4555C12.5983 51.9502 11.2039 49.833 9.36483 50.2995L2.61262 52.0122C0.361127 52.5833 -0.890726 49.5031 1.12081 48.3416L10.1098 43.1511C11.49 42.3542 11.4292 40.342 10.0034 39.6299L4.9831 37.1224C3.37157 36.3175 3.5621 33.9594 5.28196 33.4237L17.8402 29.5119C19.1151 29.1147 19.6502 27.6036 18.9093 26.4927L13.585 18.5093C12.5949 17.0247 13.8975 15.0849 15.6464 15.4396Z" fill="#5960FF"/>
</svg>
