<svg width="28" height="29" viewBox="0 0 28 29" fill="none" xmlns="http://www.w3.org/2000/svg">
<path d="M10.153 16L11.2959 8L16.7041 8L17.847 16L10.153 16Z" stroke="#EFEFEF" stroke-width="2" stroke-linecap="round" stroke-linejoin="round"/>
<path d="M14 5V3" stroke="#EFEFEF" stroke-width="2" stroke-linecap="round" stroke-linejoin="round"/>
<path d="M21 10L22 10" stroke="#EFEFEF" stroke-width="2" stroke-linecap="round" stroke-linejoin="round"/>
<path d="M19.4235 5.81162L20.5881 4.64697" stroke="#EFEFEF" stroke-width="2" stroke-linecap="round" stroke-linejoin="round"/>
<path d="M8.57651 5.81162L7.41187 4.64697" stroke="#EFEFEF" stroke-width="2" stroke-linecap="round" stroke-linejoin="round"/>
<path d="M6 10L7 10" stroke="#EFEFEF" stroke-width="2" stroke-linecap="round" stroke-linejoin="round"/>
<path d="M6.0625 19.6719H5.32031V24.7969H6.0625V19.6719ZM0.296875 23.2188L0.695312 23.8047C1.51562 23.4883 2.12109 22.8398 2.42969 22.0273C2.74219 22.7852 3.33984 23.3789 4.14844 23.6797L4.53125 23.0859C3.44922 22.7109 2.80078 21.7734 2.80469 20.75V20.0547H2.04688V20.75C2.04297 21.8047 1.39453 22.8125 0.296875 23.2188ZM1.48438 26.5156H6.27344V25.9141H2.23438V24.3125H1.48438V26.5156ZM12.8359 20.3359H7.84375V20.9375H12.0938V21.0234C12.0898 21.8633 12.0898 22.8555 11.8203 24.2109L12.5703 24.2891C12.832 22.8555 12.832 21.8867 12.8359 21.0234V20.3359ZM7.17188 25.7188H13.5547V25.1016H10.3359V22.6328H9.60156V25.1016H7.17188V25.7188ZM19.5391 19.6641H18.8047V26.6641H19.5391V23.1172H20.6641V22.5H19.5391V19.6641ZM14.0469 21.3672H18.1953V20.7578H16.5156V19.7578H15.7734V20.7578H14.0469V21.3672ZM14.4062 23.5078C14.4062 24.4688 15.1406 25.1367 16.1484 25.1406C17.1523 25.1367 17.8867 24.4688 17.8906 23.5078C17.8867 22.5547 17.1523 21.8828 16.1484 21.8828C15.1406 21.8828 14.4062 22.5547 14.4062 23.5078ZM15.1172 23.5078C15.1133 22.9102 15.5508 22.4961 16.1484 22.4922C16.7422 22.4961 17.1758 22.9102 17.1797 23.5078C17.1758 24.1172 16.7422 24.5234 16.1484 24.5156C15.5508 24.5234 15.1133 24.1172 15.1172 23.5078ZM26.8203 19.6641H26.0703V26.6641H26.8203V19.6641ZM21.0703 24.7891L21.4609 25.3906C23.8633 24.2383 24.7344 22.4648 24.7344 20.4141H21.4062V21.0078H23.9844C23.8398 22.6406 22.9297 23.9023 21.0703 24.7891Z" fill="#EFEFEF"/>
</svg>
