<svg width="38" height="39" viewBox="0 0 38 39" fill="none" xmlns="http://www.w3.org/2000/svg">
<path fill-rule="evenodd" clip-rule="evenodd" d="M33.305 1C33.305 0.447715 32.8573 0 32.305 0C31.7527 0 31.305 0.447715 31.305 1V4.69575H27.6093C27.057 4.69575 26.6093 5.14347 26.6093 5.69575C26.6093 6.24804 27.057 6.69575 27.6093 6.69575H31.305V10.3915C31.305 10.9438 31.7527 11.3915 32.305 11.3915C32.8573 11.3915 33.305 10.9438 33.305 10.3915V6.69576H37.0008C37.5531 6.69576 38.0008 6.24804 38.0008 5.69576C38.0008 5.14347 37.5531 4.69576 37.0008 4.69576H33.305V1ZM0 7.69575C0 6.0389 1.34314 4.69575 3 4.69575H20.5765C21.1288 4.69575 21.5765 5.14347 21.5765 5.69575C21.5765 6.24804 21.1288 6.69575 20.5765 6.69575H3C2.44772 6.69575 2 7.14347 2 7.69575V35.6958C2 36.248 2.44772 36.6958 3 36.6958H31C31.5523 36.6958 32 36.248 32 35.6958V18.6481C32 18.0959 32.4477 17.6481 33 17.6481C33.5523 17.6481 34 18.0959 34 18.6481V35.6958C34 37.3526 32.6569 38.6958 31 38.6958H3C1.34315 38.6958 0 37.3526 0 35.6958V7.69575ZM7.70723 27.0086L9.46216 23.9337C10.1647 22.7027 11.8895 22.5729 12.7684 23.6851L13.329 24.3945C14.1907 25.4849 15.8743 25.3857 16.6021 24.2017L18.7338 20.7334C19.5088 19.4724 21.3373 19.4609 22.1282 20.7119L26.06 26.9313C26.9019 28.263 25.945 30 24.3695 30H9.44424C7.90907 30 6.94628 28.342 7.70723 27.0086Z" fill="#ADB3CD"/>
</svg>
