<svg width="44" height="45" viewBox="0 0 44 45" fill="none" xmlns="http://www.w3.org/2000/svg">
<path d="M8.2479 6.78266L13.2283 9.04466C14.5563 9.64782 16.0625 8.67238 16.0553 7.21381L16.0304 2.15622C16.02 0.0484937 18.8559 -0.639512 19.8125 1.23867L21.135 3.83522C21.8367 5.21304 23.7697 5.30746 24.6024 4.0046L26.1005 1.6606C27.1611 0.00106122 29.7354 0.857651 29.5903 2.82182C29.4696 4.45423 31.3346 5.46265 32.6345 4.4679L36.1176 1.80256C37.7834 0.527863 40.0381 2.35051 39.1408 4.24644L37.2528 8.23561C36.5684 9.6818 37.7748 11.3063 39.3571 11.0691L41.5132 10.7458C43.6398 10.427 44.7024 13.23 42.8989 14.4011L39.2381 16.7782C38.022 17.5679 38.0241 19.3487 39.2421 20.1355L42.4802 22.2275C44.0148 23.2189 43.5261 25.5795 41.724 25.8801L38.2489 26.4598C36.8662 26.6905 36.1437 28.2351 36.8528 29.4443L39.2467 33.5263C40.236 35.2133 38.4656 37.1712 36.6879 36.3561L33.0087 34.6691C31.7208 34.0786 30.2441 34.9776 30.1773 36.3928L29.9143 41.9668C29.8214 43.9364 27.2359 44.5973 26.2091 42.914L23.9471 39.2056C23.1333 37.8714 21.1723 37.9442 20.4597 39.3352L18.4474 43.263C17.4873 45.1372 14.6559 44.4459 14.6674 42.3402L14.6727 41.381C14.6816 39.7505 12.8405 38.7951 11.5125 39.741L9.03954 41.5023C7.3505 42.7053 5.17235 40.8595 6.08196 38.996L7.68208 35.7179C8.38037 34.2873 7.20869 32.6539 5.62978 32.8569L3.0491 33.1886C0.915205 33.4629 -0.0876932 30.6358 1.74201 29.504L4.87997 27.563C6.06487 26.8301 6.15605 25.1405 5.0569 24.2843L1.98084 21.8882C0.63836 20.8424 1.1321 18.7046 2.79719 18.3534L7.30675 17.4024C8.65559 17.118 9.31902 15.5863 8.60383 14.4078L5.71107 9.64127C4.69032 7.95932 6.45654 5.96905 8.2479 6.78266Z" fill="#DE66FF"/>
</svg>
