<svg width="44" height="45" viewBox="0 0 44 45" fill="none" xmlns="http://www.w3.org/2000/svg">
<path d="M8.18931 6.78266L13.1697 9.04466C14.4977 9.64782 16.0039 8.67238 15.9967 7.21381L15.9718 2.15622C15.9614 0.0484937 18.7973 -0.639512 19.7539 1.23867L21.0764 3.83522C21.7781 5.21304 23.7111 5.30746 24.5438 4.0046L26.0419 1.6606C27.1025 0.00106122 29.6768 0.857651 29.5317 2.82182C29.4111 4.45423 31.276 5.46265 32.5759 4.4679L36.059 1.80256C37.7248 0.527863 39.9795 2.35051 39.0822 4.24644L37.1942 8.23561C36.5098 9.6818 37.7162 11.3063 39.2985 11.0691L41.4546 10.7458C43.5812 10.427 44.6438 13.23 42.8403 14.4011L39.1795 16.7782C37.9634 17.5679 37.9655 19.3487 39.1835 20.1355L42.4216 22.2275C43.9562 23.2189 43.4675 25.5795 41.6654 25.8801L38.1903 26.4598C36.8076 26.6905 36.0851 28.2351 36.7942 29.4443L39.1881 33.5263C40.1774 35.2133 38.407 37.1712 36.6293 36.3561L32.9501 34.6691C31.6622 34.0786 30.1855 34.9776 30.1187 36.3928L29.8558 41.9668C29.7628 43.9364 27.1773 44.5973 26.1505 42.914L23.8885 39.2056C23.0747 37.8714 21.1137 37.9442 20.4011 39.3352L18.3888 43.263C17.4287 45.1372 14.5973 44.4459 14.6088 42.3402L14.6141 41.381C14.623 39.7505 12.7819 38.7951 11.4539 39.741L8.98095 41.5023C7.2919 42.7053 5.11375 40.8595 6.02337 38.996L7.62348 35.7179C8.32178 34.2873 7.1501 32.6539 5.57118 32.8569L2.99051 33.1886C0.856611 33.4629 -0.146287 30.6358 1.68342 29.504L4.82138 27.563C6.00628 26.8301 6.09746 25.1405 4.99831 24.2843L1.92225 21.8882C0.579766 20.8424 1.07351 18.7046 2.73859 18.3534L7.24816 17.4024C8.59699 17.118 9.26043 15.5863 8.54523 14.4078L5.65248 9.64127C4.63172 7.95932 6.39794 5.96905 8.18931 6.78266Z" fill="#5960FF"/>
</svg>
