<svg width="133" height="21" viewBox="0 0 133 21" fill="none" xmlns="http://www.w3.org/2000/svg">
<path d="M5.3924 15.2868V9.88235H16.8916C17.3525 9.88235 17.7365 9.78971 18.0438 9.60441C18.3664 9.39853 18.5277 8.97647 18.5277 8.33824C18.5277 7.67941 18.3664 7.25735 18.0438 7.07206C17.7365 6.88676 17.3525 6.79412 16.8916 6.79412H5.76111V20.3824H0V0.617646H15.9929C17.1451 0.617646 18.2205 0.730882 19.2191 0.957353C20.233 1.16324 21.1164 1.54412 21.8692 2.1C22.622 2.65588 23.2135 3.43824 23.6436 4.44706C24.0738 5.45588 24.2889 6.75294 24.2889 8.33824C24.2889 9.92353 24.0738 11.1794 23.6436 12.1059C23.2135 13.0324 22.622 13.7221 21.8692 14.175C21.1164 14.6279 20.233 14.9265 19.2191 15.0706C18.2205 15.2147 17.1451 15.2868 15.9929 15.2868H5.3924Z" fill="#5960FF"/>
<path d="M27.1638 20.3824V0.617646H44.9772C46.3752 0.617646 47.6273 0.833823 48.7334 1.26618C49.8549 1.67794 50.7383 2.37794 51.3836 3.36618C52.0442 4.35441 52.3745 5.70294 52.3745 7.41176C52.3745 8.54412 52.2208 9.48088 51.9136 10.2221C51.6063 10.9632 51.1838 11.5397 50.6461 11.9515C50.1084 12.3632 49.4939 12.6618 48.8026 12.8471C48.1112 13.0324 47.3892 13.1456 46.6364 13.1868L44.9542 12.7544C46.7823 12.775 48.1881 12.8779 49.1713 13.0632C50.1699 13.2485 50.8612 13.5882 51.2453 14.0824C51.6447 14.5559 51.8444 15.2456 51.8444 16.1515V20.3824H46.0833V17.0779C46.0833 16.4603 45.9912 15.9971 45.8068 15.6882C45.6378 15.3588 45.2537 15.1324 44.6546 15.0088C44.0708 14.8853 43.1644 14.8235 41.9353 14.8235H32.9249V20.3824H27.1638ZM32.9249 9.66618H44.9772C45.4381 9.66618 45.8222 9.56324 46.1294 9.35735C46.452 9.15147 46.6134 8.76029 46.6134 8.18382C46.6134 7.64853 46.452 7.28823 46.1294 7.10294C45.8222 6.89706 45.4381 6.79412 44.9772 6.79412H32.9249V9.66618Z" fill="#5960FF"/>
<path d="M69.2758 21C65.9267 21 63.2304 20.6088 61.1872 19.8265C59.1439 19.0235 57.6537 17.85 56.7165 16.3059C55.7948 14.7412 55.3339 12.8059 55.3339 10.5C55.3339 8.19412 55.7948 6.26912 56.7165 4.725C57.6537 3.16029 59.1439 1.98676 61.1872 1.20441C63.2304 0.40147 65.9267 0 69.2758 0C72.6249 0 75.3211 0.40147 77.3644 1.20441C79.4077 1.98676 80.8902 3.16029 81.812 4.725C82.7491 6.26912 83.2177 8.19412 83.2177 10.5C83.2177 12.8059 82.7491 14.7412 81.812 16.3059C80.8902 17.85 79.4077 19.0235 77.3644 19.8265C75.3211 20.6088 72.6249 21 69.2758 21ZM69.2758 15.1324C70.8582 15.1324 72.2255 15.0088 73.3777 14.7618C74.5299 14.4941 75.421 14.0309 76.0508 13.3721C76.6807 12.6926 76.9957 11.7353 76.9957 10.5C76.9957 9.2647 76.6807 8.31765 76.0508 7.65882C75.421 6.97941 74.5299 6.51618 73.3777 6.26912C72.2255 6.00147 70.8582 5.86765 69.2758 5.86765C67.6934 5.86765 66.303 6.00147 65.1047 6.26912C63.9218 6.51618 62.9923 6.97941 62.3163 7.65882C61.6557 8.31765 61.3254 9.2647 61.3254 10.5C61.3254 11.7353 61.6557 12.6926 62.3163 13.3721C62.9923 14.0309 63.9218 14.4941 65.1047 14.7618C66.303 15.0088 67.6934 15.1324 69.2758 15.1324Z" fill="#5960FF"/>
<path d="M84.8434 0.617646H108.81V6.48529H84.8434V0.617646ZM93.9459 6.08382H99.7071V20.3824H93.9459V6.08382Z" fill="#5960FF"/>
<path d="M111.891 17.3868V12.7544H127.654V17.3868H111.891ZM106.729 20.3824L116.615 0.617646H123.022L133 20.3824H126.663L118.113 2.68676H121.547L113.067 20.3824H106.729Z" fill="#5960FF"/>
</svg>
